<svg width="35" height="65" viewBox="0 0 35 65" fill="none" xmlns="http://www.w3.org/2000/svg">
<path d="M10.865 44.58C12.561 46.276 14.6987 47.124 17.278 47.124C19.8573 47.124 21.9773 46.276 23.638 44.58C25.334 42.8487 26.182 40.6227 26.182 37.902C26.182 35.1813 25.334 32.973 23.638 31.277C21.9773 29.5457 19.8573 28.68 17.278 28.68C14.6987 28.68 12.561 29.5457 10.865 31.277C9.20433 32.973 8.374 35.1813 8.374 37.902C8.374 40.6227 9.20433 42.8487 10.865 44.58ZM27.878 48.237C25.0513 51.0283 21.518 52.424 17.278 52.424C13.038 52.424 9.50467 51.0283 6.678 48.237C3.85133 45.4103 2.438 41.9653 2.438 37.902C2.438 33.8387 3.85133 30.4113 6.678 27.62C9.50467 24.7933 13.038 23.38 17.278 23.38C21.518 23.38 25.0513 24.7933 27.878 27.62C30.7047 30.4113 32.118 33.8387 32.118 37.902C32.118 41.9653 30.7047 45.4103 27.878 48.237Z" fill="#24A7FF"/>
<path fill-rule="evenodd" clip-rule="evenodd" d="M15.7543 38.6626H16.4543V41.3126H17.7543V38.6626H18.4543V42.0126H15.7543V38.6626Z" fill="#24A7FF"/>
<path fill-rule="evenodd" clip-rule="evenodd" d="M17.0479 35.5108C16.8631 35.5559 16.6542 35.7392 16.5203 35.9399L16.4342 36.0692L16.29 36.1268C15.8674 36.2959 15.6744 36.4951 15.5854 36.6634C15.4961 36.8324 15.4751 37.0394 15.5304 37.2939C15.6467 37.829 16.0703 38.4215 16.4579 38.809L15.7507 39.5161C15.3049 39.0703 14.7285 38.3128 14.5532 37.5063C14.4627 37.09 14.4729 36.6282 14.7013 36.1961C14.9114 35.7987 15.2754 35.4844 15.7808 35.2569C15.9974 34.9773 16.3516 34.6515 16.8107 34.5394C17.0937 34.4703 17.4065 34.4863 17.7172 34.6351C17.9829 34.7624 18.2209 34.9741 18.4334 35.2613C18.9088 35.4886 19.4711 35.9431 19.6519 36.6663C19.8589 37.4945 19.5159 38.4581 18.4579 39.5161L17.7508 38.809C18.6927 37.8671 18.7663 37.2473 18.6817 36.9089C18.5895 36.5397 18.2527 36.2605 17.9186 36.1268L17.7744 36.0692L17.6883 35.9399C17.5221 35.6907 17.3805 35.5826 17.2852 35.537C17.1979 35.4952 17.1233 35.4924 17.0479 35.5108Z" fill="#24A7FF"/>
<path d="M8 28V16C8 13.2386 10.2386 11 13 11H18.5C21.2614 11 23.5 13.2386 23.5 16V18.1778" stroke="#24A7FF" stroke-width="4"/>
</svg>
