<svg width="307" height="75" viewBox="0 0 307 75" fill="none" xmlns="http://www.w3.org/2000/svg">
<g filter="url(#filter0_d)">
<path d="M21.861 14.953C27.479 14.953 31.5777 16.0307 34.157 18.186C36.7363 20.3413 38.026 23.6627 38.026 28.15C38.026 32.6373 36.701 35.9233 34.051 38.008C31.4363 40.0927 27.4083 41.135 21.967 41.135H15.395V52H9.141V14.953H21.861ZM22.656 35.464C26.1187 35.464 28.4683 34.8103 29.705 33.503C30.977 32.1603 31.613 30.217 31.613 27.673C31.613 25.0937 30.818 23.274 29.228 22.214C27.638 21.154 25.147 20.624 21.755 20.624H15.395V35.464H22.656ZM50.7849 44.58C52.4809 46.276 54.6186 47.124 57.1979 47.124C59.7773 47.124 61.8973 46.276 63.5579 44.58C65.2539 42.8487 66.1019 40.6227 66.1019 37.902C66.1019 35.1813 65.2539 32.973 63.5579 31.277C61.8973 29.5457 59.7773 28.68 57.1979 28.68C54.6186 28.68 52.4809 29.5457 50.7849 31.277C49.1243 32.973 48.2939 35.1813 48.2939 37.902C48.2939 40.6227 49.1243 42.8487 50.7849 44.58ZM67.7979 48.237C64.9713 51.0283 61.4379 52.424 57.1979 52.424C52.9579 52.424 49.4246 51.0283 46.5979 48.237C43.7713 45.4103 42.3579 41.9653 42.3579 37.902C42.3579 33.8387 43.7713 30.4113 46.5979 27.62C49.4246 24.7933 52.9579 23.38 57.1979 23.38C61.4379 23.38 64.9713 24.7933 67.7979 27.62C70.6246 30.4113 72.0379 33.8387 72.0379 37.902C72.0379 41.9653 70.6246 45.4103 67.7979 48.237ZM76.9657 20.942C76.0117 20.3767 75.5347 19.5463 75.5347 18.451C75.5347 17.3203 75.8527 16.4547 76.4887 15.854C77.1247 15.218 77.9197 14.9 78.8737 14.9C79.8277 14.9 80.6227 15.2003 81.2587 15.801C81.93 16.4017 82.2657 17.1967 82.2657 18.186C82.2657 19.14 81.9477 20.0763 81.3117 20.995L78.1847 25.5H74.9517L76.9657 20.942ZM93.5369 44.58C95.2329 46.276 97.3705 47.124 99.9499 47.124C102.529 47.124 104.649 46.276 106.31 44.58C108.006 42.8487 108.854 40.6227 108.854 37.902C108.854 35.1813 108.006 32.973 106.31 31.277C104.649 29.5457 102.529 28.68 99.9499 28.68C97.3705 28.68 95.2329 29.5457 93.5369 31.277C91.8762 32.973 91.0459 35.1813 91.0459 37.902C91.0459 40.6227 91.8762 42.8487 93.5369 44.58ZM110.55 48.237C107.723 51.0283 104.19 52.424 99.9499 52.424C95.7099 52.424 92.1765 51.0283 89.3499 48.237C86.5232 45.4103 85.1099 41.9653 85.1099 37.902C85.1099 33.8387 86.5232 30.4113 89.3499 27.62C92.1765 24.7933 95.7099 23.38 99.9499 23.38C104.19 23.38 107.723 24.7933 110.55 27.62C113.377 30.4113 114.79 33.8387 114.79 37.902C114.79 41.9653 113.377 45.4103 110.55 48.237ZM136.644 23.38C140.425 23.38 143.658 24.6873 146.343 27.302C149.028 29.9167 150.371 33.397 150.371 37.743C150.371 42.089 149.028 45.6223 146.343 48.343C143.693 51.0637 140.584 52.424 137.015 52.424C133.482 52.424 130.302 50.8693 127.475 47.76V62.282H121.539V23.804H127.475V28.733C129.807 25.1643 132.863 23.38 136.644 23.38ZM127.369 37.955C127.369 40.6403 128.182 42.8487 129.807 44.58C131.432 46.276 133.411 47.124 135.743 47.124C138.075 47.124 140.107 46.276 141.838 44.58C143.569 42.884 144.435 40.6933 144.435 38.008C144.435 35.2873 143.587 33.0437 141.891 31.277C140.195 29.475 138.163 28.574 135.796 28.574C133.429 28.574 131.432 29.475 129.807 31.277C128.182 33.0437 127.369 35.2697 127.369 37.955ZM163.084 52H157.148V23.804H163.084V52ZM157.519 18.186C156.777 17.444 156.406 16.5607 156.406 15.536C156.406 14.5113 156.777 13.628 157.519 12.886C158.261 12.144 159.145 11.773 160.169 11.773C161.194 11.773 162.077 12.144 162.819 12.886C163.561 13.628 163.932 14.5113 163.932 15.536C163.932 16.5607 163.561 17.444 162.819 18.186C162.077 18.928 161.194 19.299 160.169 19.299C159.145 19.299 158.261 18.928 157.519 18.186ZM175.243 63.236C172.664 63.236 170.332 62.2997 168.247 60.427L170.95 55.604C172.187 56.77 173.459 57.353 174.766 57.353C176.109 57.353 177.187 56.876 177.999 55.922C178.847 54.968 179.271 53.9257 179.271 52.795C179.271 52.3003 175.473 42.6367 167.876 23.804H174.236L182.663 44.58L191.09 23.804H197.45L183.776 57.3C182.964 59.1373 181.798 60.586 180.278 61.646C178.759 62.706 177.081 63.236 175.243 63.236ZM242.636 36.736V52H236.7V12.727H242.636V28.945C243.484 27.2137 244.756 25.8533 246.452 24.864C248.184 23.8747 250.039 23.38 252.017 23.38C255.197 23.38 257.759 24.3517 259.702 26.295C261.681 28.2383 262.67 31.0473 262.67 34.722V52H256.734V36.524C256.734 31.33 254.579 28.733 250.268 28.733C248.219 28.733 246.435 29.422 244.915 30.8C243.396 32.1427 242.636 34.1213 242.636 36.736ZM297.199 40.499H275.098C275.239 42.5483 276.176 44.209 277.907 45.481C279.638 46.7177 281.617 47.336 283.843 47.336C287.376 47.336 290.062 46.223 291.899 43.997L295.291 47.707C292.252 50.8517 288.295 52.424 283.419 52.424C279.462 52.424 276.087 51.1167 273.296 48.502C270.54 45.852 269.162 42.3187 269.162 37.902C269.162 33.45 270.575 29.9167 273.402 27.302C276.229 24.6873 279.55 23.38 283.366 23.38C287.217 23.38 290.486 24.546 293.171 26.878C295.856 29.1747 297.199 32.3547 297.199 36.418V40.499ZM275.098 35.835H291.263C291.263 33.4677 290.521 31.648 289.037 30.376C287.553 29.104 285.716 28.468 283.525 28.468C281.37 28.468 279.426 29.1393 277.695 30.482C275.964 31.7893 275.098 33.5737 275.098 35.835Z" fill="white"/>
<path d="M208.698 44.58C210.394 46.276 212.532 47.124 215.111 47.124C217.69 47.124 219.81 46.276 221.471 44.58C223.167 42.8487 224.015 40.6227 224.015 37.902C224.015 35.1813 223.167 32.973 221.471 31.277C219.81 29.5457 217.69 28.68 215.111 28.68C212.532 28.68 210.394 29.5457 208.698 31.277C207.037 32.973 206.207 35.1813 206.207 37.902C206.207 40.6227 207.037 42.8487 208.698 44.58ZM225.711 48.237C222.884 51.0283 219.351 52.424 215.111 52.424C210.871 52.424 207.338 51.0283 204.511 48.237C201.684 45.4103 200.271 41.9653 200.271 37.902C200.271 33.8387 201.684 30.4113 204.511 27.62C207.338 24.7933 210.871 23.38 215.111 23.38C219.351 23.38 222.884 24.7933 225.711 27.62C228.538 30.4113 229.951 33.8387 229.951 37.902C229.951 41.9653 228.538 45.4103 225.711 48.237Z" fill="#24A7FF"/>
</g>
<path fill-rule="evenodd" clip-rule="evenodd" d="M213.754 38.6626H214.454V41.3126H215.754V38.6626H216.454V42.0126H213.754V38.6626Z" fill="#24A7FF"/>
<path fill-rule="evenodd" clip-rule="evenodd" d="M215.048 35.5108C214.863 35.5559 214.654 35.7392 214.52 35.9399L214.434 36.0692L214.29 36.1268C213.867 36.2959 213.674 36.4951 213.585 36.6634C213.496 36.8324 213.475 37.0394 213.53 37.2939C213.647 37.829 214.07 38.4215 214.458 38.809L213.751 39.5161C213.305 39.0703 212.729 38.3128 212.553 37.5063C212.463 37.09 212.473 36.6282 212.701 36.1961C212.911 35.7987 213.275 35.4844 213.781 35.2569C213.997 34.9773 214.352 34.6515 214.811 34.5394C215.094 34.4703 215.407 34.4863 215.717 34.6351C215.983 34.7624 216.221 34.9741 216.433 35.2613C216.909 35.4886 217.471 35.9431 217.652 36.6663C217.859 37.4945 217.516 38.4581 216.458 39.5161L215.751 38.809C216.693 37.8671 216.766 37.2473 216.682 36.9089C216.589 36.5397 216.253 36.2605 215.919 36.1268L215.774 36.0692L215.688 35.9399C215.522 35.6907 215.38 35.5826 215.285 35.537C215.198 35.4952 215.123 35.4924 215.048 35.5108Z" fill="#24A7FF"/>
<path d="M206 30V18C206 15.2386 208.239 13 211 13H216.5C219.261 13 221.5 15.2386 221.5 18V20.1778" stroke="#24A7FF" stroke-width="4"/>
<defs>
<filter id="filter0_d" x="0.140999" y="4.77299" width="306.058" height="69.463" filterUnits="userSpaceOnUse" color-interpolation-filters="sRGB">
<feFlood flood-opacity="0" result="BackgroundImageFix"/>
<feColorMatrix in="SourceAlpha" type="matrix" values="0 0 0 0 0 0 0 0 0 0 0 0 0 0 0 0 0 0 127 0"/>
<feOffset dy="2"/>
<feGaussianBlur stdDeviation="4.5"/>
<feColorMatrix type="matrix" values="0 0 0 0 0 0 0 0 0 0 0 0 0 0 0 0 0 0 0.25 0"/>
<feBlend mode="normal" in2="BackgroundImageFix" result="effect1_dropShadow"/>
<feBlend mode="normal" in="SourceGraphic" in2="effect1_dropShadow" result="shape"/>
</filter>
</defs>
</svg>
