<svg width="214" height="74" viewBox="0 0 214 74" fill="none" xmlns="http://www.w3.org/2000/svg">
<g filter="url(#filter0_d)">
<path d="M23.324 19.829C21.522 19.829 20.038 20.2 18.872 20.942C17.706 21.684 17.123 22.8147 17.123 24.334C17.123 25.818 17.706 26.9663 18.872 27.779C20.038 28.5563 22.5113 29.4043 26.292 30.323C30.108 31.2417 32.97 32.5313 34.878 34.192C36.8213 35.8527 37.793 38.3083 37.793 41.559C37.793 44.7743 36.574 47.389 34.136 49.403C31.698 51.417 28.5003 52.424 24.543 52.424C18.7483 52.424 13.6073 50.4277 9.12 46.435L13.042 41.718C16.7873 44.9687 20.674 46.594 24.702 46.594C26.716 46.594 28.306 46.17 29.472 45.322C30.6733 44.4387 31.274 43.2903 31.274 41.877C31.274 40.4283 30.7087 39.3153 29.578 38.538C28.4827 37.7253 26.5747 37.001 23.854 36.365C21.1333 35.6937 19.0663 35.093 17.653 34.563C16.2397 33.9977 14.9853 33.2733 13.89 32.39C11.6993 30.7293 10.604 28.1853 10.604 24.758C10.604 21.3307 11.8407 18.6983 14.314 16.861C16.8227 14.9883 19.9143 14.052 23.589 14.052C25.9563 14.052 28.306 14.4407 30.638 15.218C32.97 15.9953 34.984 17.0907 36.68 18.504L33.341 23.221C32.2457 22.2317 30.7617 21.419 28.889 20.783C27.0163 20.147 25.1613 19.829 23.324 19.829ZM50.6128 52H44.6768V23.804H50.6128V52ZM45.0478 18.186C44.3058 17.444 43.9348 16.5607 43.9348 15.536C43.9348 14.5113 44.3058 13.628 45.0478 12.886C45.7898 12.144 46.6731 11.773 47.6978 11.773C48.7225 11.773 49.6058 12.144 50.3478 12.886C51.0898 13.628 51.4608 14.5113 51.4608 15.536C51.4608 16.5607 51.0898 17.444 50.3478 18.186C49.6058 18.928 48.7225 19.299 47.6978 19.299C46.6731 19.299 45.7898 18.928 45.0478 18.186ZM58.7967 20.942C57.8427 20.3767 57.3657 19.5463 57.3657 18.451C57.3657 17.3203 57.6837 16.4547 58.3197 15.854C58.9557 15.218 59.7507 14.9 60.7047 14.9C61.6587 14.9 62.4537 15.2003 63.0897 15.801C63.7611 16.4017 64.0967 17.1967 64.0967 18.186C64.0967 19.14 63.7787 20.0763 63.1427 20.995L60.0157 25.5H56.7827L58.7967 20.942ZM71.559 14.953H77.813V33.026L94.773 14.953H102.723L87.83 31.171L102.935 52H95.515L83.219 35.782L77.813 41.612V52H71.559V14.953ZM134.263 40.499H112.162C112.304 42.5483 113.24 44.209 114.971 45.481C116.703 46.7177 118.681 47.336 120.907 47.336C124.441 47.336 127.126 46.223 128.963 43.997L132.355 47.707C129.317 50.8517 125.359 52.424 120.483 52.424C116.526 52.424 113.152 51.1167 110.36 48.502C107.604 45.852 106.226 42.3187 106.226 37.902C106.226 33.45 107.64 29.9167 110.466 27.302C113.293 24.6873 116.614 23.38 120.43 23.38C124.282 23.38 127.55 24.546 130.235 26.878C132.921 29.1747 134.263 32.3547 134.263 36.418V40.499ZM112.162 35.835H128.327C128.327 33.4677 127.585 31.648 126.101 30.376C124.617 29.104 122.78 28.468 120.589 28.468C118.434 28.468 116.491 29.1393 114.759 30.482C113.028 31.7893 112.162 33.5737 112.162 35.835ZM155.896 23.38C159.677 23.38 162.91 24.6873 165.595 27.302C168.28 29.9167 169.623 33.397 169.623 37.743C169.623 42.089 168.28 45.6223 165.595 48.343C162.945 51.0637 159.836 52.424 156.267 52.424C152.734 52.424 149.554 50.8693 146.727 47.76V62.282H140.791V23.804H146.727V28.733C149.059 25.1643 152.115 23.38 155.896 23.38ZM146.621 37.955C146.621 40.6403 147.434 42.8487 149.059 44.58C150.684 46.276 152.663 47.124 154.995 47.124C157.327 47.124 159.359 46.276 161.09 44.58C162.821 42.884 163.687 40.6933 163.687 38.008C163.687 35.2873 162.839 33.0437 161.143 31.277C159.447 29.475 157.415 28.574 155.048 28.574C152.681 28.574 150.684 29.475 149.059 31.277C147.434 33.0437 146.621 35.2697 146.621 37.955Z" fill="white"/>
<path d="M182.972 44.58C184.668 46.276 186.806 47.124 189.385 47.124C191.965 47.124 194.085 46.276 195.745 44.58C197.441 42.8487 198.289 40.6227 198.289 37.902C198.289 35.1813 197.441 32.973 195.745 31.277C194.085 29.5457 191.965 28.68 189.385 28.68C186.806 28.68 184.668 29.5457 182.972 31.277C181.312 32.973 180.481 35.1813 180.481 37.902C180.481 40.6227 181.312 42.8487 182.972 44.58ZM199.985 48.237C197.159 51.0283 193.625 52.424 189.385 52.424C185.145 52.424 181.612 51.0283 178.785 48.237C175.959 45.4103 174.545 41.9653 174.545 37.902C174.545 33.8387 175.959 30.4113 178.785 27.62C181.612 24.7933 185.145 23.38 189.385 23.38C193.625 23.38 197.159 24.7933 199.985 27.62C202.812 30.4113 204.225 33.8387 204.225 37.902C204.225 41.9653 202.812 45.4103 199.985 48.237Z" fill="#24A7FF"/>
</g>
<path fill-rule="evenodd" clip-rule="evenodd" d="M187.754 38.6626H188.454V41.3126H189.754V38.6626H190.454V42.0126H187.754V38.6626Z" fill="#24A7FF"/>
<path fill-rule="evenodd" clip-rule="evenodd" d="M189.048 35.5108C188.863 35.5559 188.654 35.7391 188.52 35.9399L188.434 36.0691L188.29 36.1268C187.867 36.2958 187.674 36.4951 187.585 36.6634C187.496 36.8324 187.475 37.0394 187.53 37.2938C187.647 37.829 188.07 38.4215 188.458 38.809L187.751 39.5161C187.305 39.0703 186.729 38.3128 186.553 37.5063C186.463 37.0899 186.473 36.6282 186.701 36.1961C186.911 35.7986 187.275 35.4844 187.781 35.2568C187.997 34.9773 188.352 34.6514 188.811 34.5393C189.094 34.4702 189.407 34.4862 189.717 34.6351C189.983 34.7624 190.221 34.9741 190.433 35.2613C190.909 35.4886 191.471 35.9431 191.652 36.6663C191.859 37.4945 191.516 38.4581 190.458 39.5161L189.751 38.809C190.693 37.867 190.766 37.2473 190.682 36.9088C190.589 36.5397 190.253 36.2604 189.919 36.1268L189.774 36.0691L189.688 35.9399C189.522 35.6907 189.38 35.5826 189.285 35.5369C189.198 35.4951 189.123 35.4924 189.048 35.5108Z" fill="#24A7FF"/>
<path d="M180 30V18C180 15.2386 182.239 13 185 13H190.5C193.261 13 195.5 15.2386 195.5 18V20.1778" stroke="#24A7FF" stroke-width="4"/>
<defs>
<filter id="filter0_d" x="0.119995" y="4.77295" width="213.105" height="68.509" filterUnits="userSpaceOnUse" color-interpolation-filters="sRGB">
<feFlood flood-opacity="0" result="BackgroundImageFix"/>
<feColorMatrix in="SourceAlpha" type="matrix" values="0 0 0 0 0 0 0 0 0 0 0 0 0 0 0 0 0 0 127 0"/>
<feOffset dy="2"/>
<feGaussianBlur stdDeviation="4.5"/>
<feColorMatrix type="matrix" values="0 0 0 0 0 0 0 0 0 0 0 0 0 0 0 0 0 0 0.25 0"/>
<feBlend mode="normal" in2="BackgroundImageFix" result="effect1_dropShadow"/>
<feBlend mode="normal" in="SourceGraphic" in2="effect1_dropShadow" result="shape"/>
</filter>
</defs>
</svg>
